<?xml version="1.0" encoding="UTF-8"?> <svg xmlns="http://www.w3.org/2000/svg" width="567" height="123" viewBox="0 0 567 123" fill="none"><g clip-path="url(#clip0_511_9671)"><rect width="567" height="123" fill="white"></rect><rect x="1" y="25" width="565" height="24" fill="#F5F5F5"></rect><rect x="1" y="74" width="565" height="24" fill="#F5F5F5"></rect><rect x="0.5" y="0.5" width="566" height="49" stroke="#4D4D4D"></rect><rect x="0.5" y="49.5" width="566" height="49" stroke="#4D4D4D"></rect><rect x="0.5" y="98.5" width="566" height="24" stroke="#4D4D4D"></rect><line y1="24.5" x2="567" y2="24.5" stroke="#4D4D4D"></line><line y1="73.5" x2="567" y2="73.5" stroke="#4D4D4D"></line><line y1="122.5" x2="567" y2="122.5" stroke="#4D4D4D"></line><line y1="49.5" x2="567" y2="49.5" stroke="#4D4D4D"></line><line y1="98.5" x2="567" y2="98.5" stroke="#4D4D4D"></line><line x1="227.5" y1="-2.18557e-08" x2="227.5" y2="50" stroke="#4D4D4D"></line><line x1="227.5" y1="49" x2="227.5" y2="99" stroke="#4D4D4D"></line><line x1="227.5" y1="98" x2="227.5" y2="123" stroke="#4D4D4D"></line><line x1="314.5" y1="-2.18557e-08" x2="314.5" y2="50" stroke="#4D4D4D"></line><line x1="314.5" y1="49" x2="314.5" y2="99" stroke="#4D4D4D"></line><line x1="314.5" y1="98" x2="314.5" y2="123" stroke="#4D4D4D"></line><line x1="64.5" y1="-2.18557e-08" x2="64.5" y2="50" stroke="#4D4D4D"></line><line x1="64.5" y1="49" x2="64.5" y2="99" stroke="#4D4D4D"></line><line x1="64.5" y1="98" x2="64.5" y2="123" stroke="#4D4D4D"></line><line x1="140.5" y1="-2.18557e-08" x2="140.5" y2="50" stroke="#4D4D4D"></line><line x1="140.5" y1="49" x2="140.5" y2="99" stroke="#4D4D4D"></line><line x1="140.5" y1="98" x2="140.5" y2="123" stroke="#4D4D4D"></line><line x1="401.5" y1="-2.18557e-08" x2="401.5" y2="50" stroke="#4D4D4D"></line><line x1="401.5" y1="49" x2="401.5" y2="99" stroke="#4D4D4D"></line><line x1="401.5" y1="98" x2="401.5" y2="123" stroke="#4D4D4D"></line><line x1="488.5" y1="-2.18557e-08" x2="488.5" y2="50" stroke="#4D4D4D"></line><line x1="488.5" y1="49" x2="488.5" y2="99" stroke="#4D4D4D"></line><line x1="488.5" y1="98" x2="488.5" y2="123" stroke="#4D4D4D"></line><path d="M99.046 18.14C98.3647 18.14 97.7113 18.042 97.086 17.846C96.4607 17.6407 95.9473 17.3607 95.546 17.006L96.134 15.648C96.5727 15.984 97.0253 16.2313 97.492 16.39C97.968 16.5487 98.4673 16.628 98.99 16.628C99.6247 16.628 100.105 16.502 100.432 16.25C100.759 15.998 100.922 15.6293 100.922 15.144C100.922 14.6773 100.759 14.3273 100.432 14.094C100.115 13.8513 99.648 13.73 99.032 13.73H97.436V12.288H98.878C99.41 12.288 99.8347 12.1573 100.152 11.896C100.469 11.6347 100.628 11.2753 100.628 10.818C100.628 10.3887 100.479 10.062 100.18 9.838C99.8907 9.614 99.4707 9.502 98.92 9.502C97.9307 9.502 97.058 9.838 96.302 10.51L95.714 9.166C96.1153 8.79267 96.61 8.50333 97.198 8.298C97.7953 8.09267 98.4207 7.99 99.074 7.99C100.101 7.99 100.903 8.22333 101.482 8.69C102.07 9.14733 102.364 9.78667 102.364 10.608C102.364 11.196 102.196 11.7047 101.86 12.134C101.533 12.554 101.081 12.834 100.502 12.974V12.806C101.183 12.918 101.711 13.198 102.084 13.646C102.467 14.0847 102.658 14.6353 102.658 15.298C102.658 16.1753 102.336 16.8707 101.692 17.384C101.048 17.888 100.166 18.14 99.046 18.14ZM107.735 18.14C106.577 18.14 105.672 17.8927 105.019 17.398C104.375 16.9033 104.053 16.2173 104.053 15.34C104.053 14.6493 104.263 14.0753 104.683 13.618C105.103 13.1607 105.649 12.89 106.321 12.806V13.1C105.714 12.9693 105.224 12.6847 104.851 12.246C104.487 11.8073 104.305 11.2753 104.305 10.65C104.305 9.81933 104.608 9.17067 105.215 8.704C105.831 8.228 106.671 7.99 107.735 7.99C108.808 7.99 109.648 8.228 110.255 8.704C110.871 9.17067 111.179 9.81933 111.179 10.65C111.179 11.2753 111.001 11.812 110.647 12.26C110.301 12.708 109.83 12.9833 109.233 13.086V12.806C109.895 12.8993 110.427 13.1747 110.829 13.632C111.23 14.08 111.431 14.6493 111.431 15.34C111.431 16.2173 111.104 16.9033 110.451 17.398C109.807 17.8927 108.901 18.14 107.735 18.14ZM107.735 16.74C108.416 16.74 108.925 16.614 109.261 16.362C109.597 16.1007 109.765 15.718 109.765 15.214C109.765 14.71 109.597 14.332 109.261 14.08C108.925 13.828 108.416 13.702 107.735 13.702C107.063 13.702 106.554 13.828 106.209 14.08C105.873 14.332 105.705 14.71 105.705 15.214C105.705 15.718 105.873 16.1007 106.209 16.362C106.554 16.614 107.063 16.74 107.735 16.74ZM107.735 12.302C108.313 12.302 108.752 12.1713 109.051 11.91C109.359 11.6487 109.513 11.2893 109.513 10.832C109.513 10.384 109.359 10.034 109.051 9.782C108.752 9.52067 108.313 9.39 107.735 9.39C107.165 9.39 106.727 9.52067 106.419 9.782C106.12 10.034 105.971 10.384 105.971 10.832C105.971 11.2893 106.12 11.6487 106.419 11.91C106.727 12.1713 107.165 12.302 107.735 12.302Z" fill="#4D4D4D"></path><path d="M20.554 42V40.502H22.822V33.642H23.69L20.778 35.378V33.67L23.34 32.13H24.628V40.502H26.756V42H20.554ZM31.8045 42.14C31.3752 42.14 30.9459 42.0933 30.5165 42C30.0965 41.9067 29.6999 41.776 29.3265 41.608C28.9625 41.44 28.6499 41.2393 28.3885 41.006L28.9765 39.648C29.4152 39.9747 29.8632 40.222 30.3205 40.39C30.7872 40.5487 31.2725 40.628 31.7765 40.628C32.3832 40.628 32.8545 40.4787 33.1905 40.18C33.5359 39.872 33.7085 39.4613 33.7085 38.948C33.7085 38.4253 33.5452 38.0053 33.2185 37.688C32.8919 37.3613 32.4439 37.198 31.8745 37.198C31.4732 37.198 31.1045 37.2773 30.7685 37.436C30.4419 37.5853 30.1479 37.8187 29.8865 38.136H28.6965V32.13H34.8285V33.614H30.4045V36.75H29.9705C30.2132 36.4233 30.5352 36.1713 30.9365 35.994C31.3472 35.8167 31.8045 35.728 32.3085 35.728C32.9432 35.728 33.4939 35.8587 33.9605 36.12C34.4272 36.3813 34.7912 36.75 35.0525 37.226C35.3139 37.6927 35.4445 38.2433 35.4445 38.878C35.4445 39.522 35.2952 40.0913 34.9965 40.586C34.7072 41.0713 34.2872 41.454 33.7365 41.734C33.1952 42.0047 32.5512 42.14 31.8045 42.14ZM40.2691 42.14C39.1117 42.14 38.2064 41.8927 37.5531 41.398C36.9091 40.9033 36.5871 40.2173 36.5871 39.34C36.5871 38.6493 36.7971 38.0753 37.2171 37.618C37.6371 37.1607 38.1831 36.89 38.8551 36.806V37.1C38.2484 36.9693 37.7584 36.6847 37.3851 36.246C37.0211 35.8073 36.8391 35.2753 36.8391 34.65C36.8391 33.8193 37.1424 33.1707 37.7491 32.704C38.3651 32.228 39.2051 31.99 40.2691 31.99C41.3424 31.99 42.1824 32.228 42.7891 32.704C43.4051 33.1707 43.7131 33.8193 43.7131 34.65C43.7131 35.2753 43.5357 35.812 43.1811 36.26C42.8357 36.708 42.3644 36.9833 41.7671 37.086V36.806C42.4297 36.8993 42.9617 37.1747 43.3631 37.632C43.7644 38.08 43.9651 38.6493 43.9651 39.34C43.9651 40.2173 43.6384 40.9033 42.9851 41.398C42.3411 41.8927 41.4357 42.14 40.2691 42.14ZM40.2691 40.74C40.9504 40.74 41.4591 40.614 41.7951 40.362C42.1311 40.1007 42.2991 39.718 42.2991 39.214C42.2991 38.71 42.1311 38.332 41.7951 38.08C41.4591 37.828 40.9504 37.702 40.2691 37.702C39.5971 37.702 39.0884 37.828 38.7431 38.08C38.4071 38.332 38.2391 38.71 38.2391 39.214C38.2391 39.718 38.4071 40.1007 38.7431 40.362C39.0884 40.614 39.5971 40.74 40.2691 40.74ZM40.2691 36.302C40.8477 36.302 41.2864 36.1713 41.5851 35.91C41.8931 35.6487 42.0471 35.2893 42.0471 34.832C42.0471 34.384 41.8931 34.034 41.5851 33.782C41.2864 33.5207 40.8477 33.39 40.2691 33.39C39.6997 33.39 39.2611 33.5207 38.9531 33.782C38.6544 34.034 38.5051 34.384 38.5051 34.832C38.5051 35.2893 38.6544 35.6487 38.9531 35.91C39.2611 36.1713 39.6997 36.302 40.2691 36.302Z" fill="#4D4D4D"></path><path d="M20.554 67V65.502H22.822V58.642H23.69L20.778 60.378V58.67L23.34 57.13H24.628V65.502H26.756V67H20.554ZM32.0845 67.14C30.8432 67.14 29.8819 66.7107 29.2005 65.852C28.5285 64.9933 28.1925 63.7893 28.1925 62.24C28.1925 61.12 28.3652 60.1727 28.7105 59.398C29.0559 58.614 29.5459 58.0167 30.1805 57.606C30.8245 57.1953 31.5945 56.99 32.4905 56.99C33.0225 56.99 33.5499 57.088 34.0725 57.284C34.5952 57.4707 35.0432 57.7413 35.4165 58.096L34.8145 59.44C34.4692 59.1227 34.0959 58.8893 33.6945 58.74C33.2932 58.5813 32.8872 58.502 32.4765 58.502C31.6365 58.502 30.9972 58.7867 30.5585 59.356C30.1199 59.9253 29.9005 60.7747 29.9005 61.904V62.954H29.7325C29.8072 62.478 29.9659 62.072 30.2085 61.736C30.4512 61.3907 30.7639 61.1293 31.1465 60.952C31.5292 60.7653 31.9539 60.672 32.4205 60.672C32.9992 60.672 33.5125 60.8073 33.9605 61.078C34.4085 61.3487 34.7585 61.722 35.0105 62.198C35.2719 62.674 35.4025 63.22 35.4025 63.836C35.4025 64.4707 35.2579 65.04 34.9685 65.544C34.6885 66.0387 34.3012 66.4307 33.8065 66.72C33.3119 67 32.7379 67.14 32.0845 67.14ZM31.9865 65.712C32.3319 65.712 32.6352 65.6373 32.8965 65.488C33.1579 65.3387 33.3585 65.1287 33.4985 64.858C33.6479 64.578 33.7225 64.2607 33.7225 63.906C33.7225 63.542 33.6479 63.2247 33.4985 62.954C33.3585 62.6833 33.1579 62.4733 32.8965 62.324C32.6352 62.1653 32.3319 62.086 31.9865 62.086C31.6412 62.086 31.3379 62.1653 31.0765 62.324C30.8152 62.4733 30.6099 62.6833 30.4605 62.954C30.3112 63.2247 30.2365 63.542 30.2365 63.906C30.2365 64.2607 30.3112 64.578 30.4605 64.858C30.6099 65.1287 30.8152 65.3387 31.0765 65.488C31.3379 65.6373 31.6412 65.712 31.9865 65.712ZM41.0531 67V65.068H36.6431V63.808L41.3331 57.13H42.7891V63.696H44.2031V65.068H42.7891V67H41.0531ZM41.0531 63.696V59.258H41.3891L37.9871 64.116V63.696H41.0531Z" fill="#4D4D4D"></path><path d="M20.554 91V89.502H22.822V82.642H23.69L20.778 84.378V82.67L23.34 81.13H24.628V89.502H26.756V91H20.554ZM28.7385 91L33.5265 82.012V82.642H28.2905V81.13H35.1925V82.474L30.7125 91H28.7385ZM40.2691 91.14C39.1117 91.14 38.2204 90.7013 37.5951 89.824C36.9697 88.9373 36.6571 87.6773 36.6571 86.044C36.6571 84.392 36.9697 83.1367 37.5951 82.278C38.2204 81.4193 39.1117 80.99 40.2691 80.99C41.4357 80.99 42.3271 81.4193 42.9431 82.278C43.5684 83.1367 43.8811 84.3873 43.8811 86.03C43.8811 87.6727 43.5684 88.9373 42.9431 89.824C42.3271 90.7013 41.4357 91.14 40.2691 91.14ZM40.2691 89.656C40.9037 89.656 41.3751 89.3667 41.6831 88.788C41.9911 88.2 42.1451 87.2807 42.1451 86.03C42.1451 84.7793 41.9911 83.874 41.6831 83.314C41.3751 82.7447 40.9037 82.46 40.2691 82.46C39.6437 82.46 39.1724 82.7447 38.8551 83.314C38.5471 83.874 38.3931 84.7793 38.3931 86.03C38.3931 87.2807 38.5471 88.2 38.8551 88.788C39.1724 89.3667 39.6437 89.656 40.2691 89.656Z" fill="#4D4D4D"></path><path d="M20.554 116V114.502H22.822V107.642H23.69L20.778 109.378V107.67L23.34 106.13H24.628V114.502H26.756V116H20.554ZM28.7385 116L33.5265 107.012V107.642H28.2905V106.13H35.1925V107.474L30.7125 116H28.7385ZM40.6191 116.14C39.3777 116.14 38.4164 115.711 37.7351 114.852C37.0631 113.993 36.7271 112.789 36.7271 111.24C36.7271 110.12 36.8997 109.173 37.2451 108.398C37.5904 107.614 38.0804 107.017 38.7151 106.606C39.3591 106.195 40.1291 105.99 41.0251 105.99C41.5571 105.99 42.0844 106.088 42.6071 106.284C43.1297 106.471 43.5777 106.741 43.9511 107.096L43.3491 108.44C43.0037 108.123 42.6304 107.889 42.2291 107.74C41.8277 107.581 41.4217 107.502 41.0111 107.502C40.1711 107.502 39.5317 107.787 39.0931 108.356C38.6544 108.925 38.4351 109.775 38.4351 110.904V111.954H38.2671C38.3417 111.478 38.5004 111.072 38.7431 110.736C38.9857 110.391 39.2984 110.129 39.6811 109.952C40.0637 109.765 40.4884 109.672 40.9551 109.672C41.5337 109.672 42.0471 109.807 42.4951 110.078C42.9431 110.349 43.2931 110.722 43.5451 111.198C43.8064 111.674 43.9371 112.22 43.9371 112.836C43.9371 113.471 43.7924 114.04 43.5031 114.544C43.2231 115.039 42.8357 115.431 42.3411 115.72C41.8464 116 41.2724 116.14 40.6191 116.14ZM40.5211 114.712C40.8664 114.712 41.1697 114.637 41.4311 114.488C41.6924 114.339 41.8931 114.129 42.0331 113.858C42.1824 113.578 42.2571 113.261 42.2571 112.906C42.2571 112.542 42.1824 112.225 42.0331 111.954C41.8931 111.683 41.6924 111.473 41.4311 111.324C41.1697 111.165 40.8664 111.086 40.5211 111.086C40.1757 111.086 39.8724 111.165 39.6111 111.324C39.3497 111.473 39.1444 111.683 38.9951 111.954C38.8457 112.225 38.7711 112.542 38.7711 112.906C38.7711 113.261 38.8457 113.578 38.9951 113.858C39.1444 114.129 39.3497 114.339 39.6111 114.488C39.8724 114.637 40.1757 114.712 40.5211 114.712Z" fill="#4D4D4D"></path><path d="M179.984 18V16.068H175.574V14.808L180.264 8.13H181.72V14.696H183.134V16.068H181.72V18H179.984ZM179.984 14.696V10.258H180.32L176.918 15.116V14.696H179.984ZM187.735 18.14C186.577 18.14 185.686 17.7013 185.061 16.824C184.435 15.9373 184.123 14.6773 184.123 13.044C184.123 11.392 184.435 10.1367 185.061 9.278C185.686 8.41933 186.577 7.99 187.735 7.99C188.901 7.99 189.793 8.41933 190.409 9.278C191.034 10.1367 191.347 11.3873 191.347 13.03C191.347 14.6727 191.034 15.9373 190.409 16.824C189.793 17.7013 188.901 18.14 187.735 18.14ZM187.735 16.656C188.369 16.656 188.841 16.3667 189.149 15.788C189.457 15.2 189.611 14.2807 189.611 13.03C189.611 11.7793 189.457 10.874 189.149 10.314C188.841 9.74467 188.369 9.46 187.735 9.46C187.109 9.46 186.638 9.74467 186.321 10.314C186.013 10.874 185.859 11.7793 185.859 13.03C185.859 14.2807 186.013 15.2 186.321 15.788C186.638 16.3667 187.109 16.656 187.735 16.656Z" fill="#4D4D4D"></path><path d="M277.984 18V16.068H273.574V14.808L278.264 8.13H279.72V14.696H281.134V16.068H279.72V18H277.984ZM277.984 14.696V10.258H278.32L274.918 15.116V14.696H277.984ZM282.627 18V16.67L285.903 13.254C286.313 12.8247 286.617 12.428 286.813 12.064C287.009 11.7 287.107 11.3267 287.107 10.944C287.107 10.468 286.957 10.1087 286.659 9.866C286.36 9.62333 285.926 9.502 285.357 9.502C284.899 9.502 284.461 9.586 284.041 9.754C283.621 9.91267 283.21 10.1647 282.809 10.51L282.221 9.166C282.622 8.81133 283.117 8.52667 283.705 8.312C284.302 8.09733 284.927 7.99 285.581 7.99C286.645 7.99 287.461 8.228 288.031 8.704C288.6 9.18 288.885 9.86133 288.885 10.748C288.885 11.364 288.74 11.952 288.451 12.512C288.161 13.0627 287.713 13.6413 287.107 14.248L284.377 16.978V16.502H289.277V18H282.627Z" fill="#4D4D4D"></path><path d="M353.984 18V16.068H349.574V14.808L354.264 8.13H355.72V14.696H357.134V16.068H355.72V18H353.984ZM353.984 14.696V10.258H354.32L350.918 15.116V14.696H353.984ZM362.519 18V16.068H358.109V14.808L362.799 8.13H364.255V14.696H365.669V16.068H364.255V18H362.519ZM362.519 14.696V10.258H362.855L359.453 15.116V14.696H362.519Z" fill="#4D4D4D"></path><path d="M440.984 18V16.068H436.574V14.808L441.264 8.13H442.72V14.696H444.134V16.068H442.72V18H440.984ZM440.984 14.696V10.258H441.32L437.918 15.116V14.696H440.984ZM449.085 18.14C447.843 18.14 446.882 17.7107 446.201 16.852C445.529 15.9933 445.193 14.7893 445.193 13.24C445.193 12.12 445.365 11.1727 445.711 10.398C446.056 9.614 446.546 9.01667 447.181 8.606C447.825 8.19533 448.595 7.99 449.491 7.99C450.023 7.99 450.55 8.088 451.073 8.284C451.595 8.47067 452.043 8.74133 452.417 9.096L451.815 10.44C451.469 10.1227 451.096 9.88933 450.695 9.74C450.293 9.58133 449.887 9.502 449.477 9.502C448.637 9.502 447.997 9.78667 447.559 10.356C447.12 10.9253 446.901 11.7747 446.901 12.904V13.954H446.733C446.807 13.478 446.966 13.072 447.209 12.736C447.451 12.3907 447.764 12.1293 448.147 11.952C448.529 11.7653 448.954 11.672 449.421 11.672C449.999 11.672 450.513 11.8073 450.961 12.078C451.409 12.3487 451.759 12.722 452.011 13.198C452.272 13.674 452.403 14.22 452.403 14.836C452.403 15.4707 452.258 16.04 451.969 16.544C451.689 17.0387 451.301 17.4307 450.807 17.72C450.312 18 449.738 18.14 449.085 18.14ZM448.987 16.712C449.332 16.712 449.635 16.6373 449.897 16.488C450.158 16.3387 450.359 16.1287 450.499 15.858C450.648 15.578 450.723 15.2607 450.723 14.906C450.723 14.542 450.648 14.2247 450.499 13.954C450.359 13.6833 450.158 13.4733 449.897 13.324C449.635 13.1653 449.332 13.086 448.987 13.086C448.641 13.086 448.338 13.1653 448.077 13.324C447.815 13.4733 447.61 13.6833 447.461 13.954C447.311 14.2247 447.237 14.542 447.237 14.906C447.237 15.2607 447.311 15.578 447.461 15.858C447.61 16.1287 447.815 16.3387 448.077 16.488C448.338 16.6373 448.641 16.712 448.987 16.712Z" fill="#4D4D4D"></path><path d="M527.984 18V16.068H523.574V14.808L528.264 8.13H529.72V14.696H531.134V16.068H529.72V18H527.984ZM527.984 14.696V10.258H528.32L524.918 15.116V14.696H527.984ZM535.735 18.14C534.577 18.14 533.672 17.8927 533.019 17.398C532.375 16.9033 532.053 16.2173 532.053 15.34C532.053 14.6493 532.263 14.0753 532.683 13.618C533.103 13.1607 533.649 12.89 534.321 12.806V13.1C533.714 12.9693 533.224 12.6847 532.851 12.246C532.487 11.8073 532.305 11.2753 532.305 10.65C532.305 9.81933 532.608 9.17067 533.215 8.704C533.831 8.228 534.671 7.99 535.735 7.99C536.808 7.99 537.648 8.228 538.255 8.704C538.871 9.17067 539.179 9.81933 539.179 10.65C539.179 11.2753 539.001 11.812 538.647 12.26C538.301 12.708 537.83 12.9833 537.233 13.086V12.806C537.895 12.8993 538.427 13.1747 538.829 13.632C539.23 14.08 539.431 14.6493 539.431 15.34C539.431 16.2173 539.104 16.9033 538.451 17.398C537.807 17.8927 536.901 18.14 535.735 18.14ZM535.735 16.74C536.416 16.74 536.925 16.614 537.261 16.362C537.597 16.1007 537.765 15.718 537.765 15.214C537.765 14.71 537.597 14.332 537.261 14.08C536.925 13.828 536.416 13.702 535.735 13.702C535.063 13.702 534.554 13.828 534.209 14.08C533.873 14.332 533.705 14.71 533.705 15.214C533.705 15.718 533.873 16.1007 534.209 16.362C534.554 16.614 535.063 16.74 535.735 16.74ZM535.735 12.302C536.313 12.302 536.752 12.1713 537.051 11.91C537.359 11.6487 537.513 11.2893 537.513 10.832C537.513 10.384 537.359 10.034 537.051 9.782C536.752 9.52067 536.313 9.39 535.735 9.39C535.165 9.39 534.727 9.52067 534.419 9.782C534.12 10.034 533.971 10.384 533.971 10.832C533.971 11.2893 534.12 11.6487 534.419 11.91C534.727 12.1713 535.165 12.302 535.735 12.302Z" fill="#4D4D4D"></path><path d="M85.778 43V42.006H88.102V34.124H88.718L86.002 35.818V34.656L88.424 33.13H89.264V42.006H91.448V43H85.778ZM93.4165 43V41.572H94.8445V43H93.4165ZM99.4021 43.126C98.8887 43.126 98.3707 43.0187 97.8481 42.804C97.3254 42.58 96.8914 42.2907 96.5461 41.936L96.9801 41.026C97.3347 41.39 97.7221 41.6607 98.1421 41.838C98.5621 42.0153 98.9867 42.104 99.4161 42.104C100.359 42.104 101.082 41.768 101.586 41.096C102.099 40.4147 102.356 39.3973 102.356 38.044V36.742H102.496C102.44 37.2647 102.277 37.722 102.006 38.114C101.745 38.506 101.404 38.8047 100.984 39.01C100.573 39.2153 100.111 39.318 99.5981 39.318C99.0007 39.318 98.4687 39.1873 98.0021 38.926C97.5447 38.6647 97.1854 38.296 96.9241 37.82C96.6627 37.344 96.5321 36.8073 96.5321 36.21C96.5321 35.5847 96.6674 35.034 96.9381 34.558C97.2181 34.0727 97.5961 33.6947 98.0721 33.424C98.5574 33.144 99.1127 33.004 99.7381 33.004C100.942 33.004 101.866 33.424 102.51 34.264C103.163 35.104 103.49 36.2893 103.49 37.82C103.49 38.9493 103.327 39.9107 103 40.704C102.673 41.4973 102.207 42.0993 101.6 42.51C100.993 42.9207 100.261 43.126 99.4021 43.126ZM99.8361 38.352C100.265 38.352 100.643 38.2587 100.97 38.072C101.297 37.8853 101.549 37.6287 101.726 37.302C101.913 36.9753 102.006 36.5973 102.006 36.168C102.006 35.7293 101.913 35.3467 101.726 35.02C101.549 34.6933 101.297 34.4367 100.97 34.25C100.643 34.0633 100.265 33.97 99.8361 33.97C99.4067 33.97 99.0241 34.0633 98.6881 34.25C98.3614 34.4367 98.1047 34.6933 97.9181 35.02C97.7407 35.3467 97.6521 35.7293 97.6521 36.168C97.6521 36.5973 97.7407 36.9753 97.9181 37.302C98.1047 37.6287 98.3614 37.8853 98.6881 38.072C99.0241 38.2587 99.4067 38.352 99.8361 38.352ZM108.777 43.126C108.347 43.126 107.927 43.0793 107.517 42.986C107.106 42.8927 106.719 42.7573 106.355 42.58C106 42.4027 105.687 42.188 105.417 41.936L105.851 41.04C106.308 41.404 106.775 41.6747 107.251 41.852C107.727 42.02 108.235 42.104 108.777 42.104C109.486 42.104 110.041 41.9127 110.443 41.53C110.844 41.1473 111.045 40.6433 111.045 40.018C111.045 39.374 110.853 38.8467 110.471 38.436C110.088 38.0253 109.556 37.82 108.875 37.82C108.389 37.82 107.955 37.918 107.573 38.114C107.19 38.3007 106.859 38.5947 106.579 38.996H105.739V33.13H111.591V34.11H106.859V38.044H106.551C106.803 37.652 107.148 37.3533 107.587 37.148C108.035 36.9333 108.539 36.826 109.099 36.826C109.733 36.826 110.279 36.9567 110.737 37.218C111.203 37.4793 111.563 37.8433 111.815 38.31C112.067 38.7767 112.193 39.3227 112.193 39.948C112.193 40.5733 112.053 41.1287 111.773 41.614C111.502 42.09 111.11 42.4633 110.597 42.734C110.093 42.9953 109.486 43.126 108.777 43.126ZM114.049 43V35.972H115.001L117.633 40.69L120.279 35.972H121.231V43H120.223V37.232H120.517L117.927 41.866H117.353L114.749 37.218H115.057V43H114.049Z" fill="black"></path><path d="M168.994 43V42.132L172.494 38.478C172.952 38.002 173.292 37.5493 173.516 37.12C173.75 36.6813 173.866 36.2287 173.866 35.762C173.866 35.1927 173.689 34.7633 173.334 34.474C172.98 34.1753 172.466 34.026 171.794 34.026C171.272 34.026 170.786 34.1193 170.338 34.306C169.9 34.4833 169.475 34.768 169.064 35.16L168.644 34.25C169.018 33.8767 169.494 33.578 170.072 33.354C170.651 33.1207 171.262 33.004 171.906 33.004C172.905 33.004 173.675 33.2373 174.216 33.704C174.758 34.1613 175.028 34.8147 175.028 35.664C175.028 36.2893 174.874 36.8867 174.566 37.456C174.268 38.016 173.829 38.5947 173.25 39.192L170.156 42.328V42.006H175.448V43H168.994ZM177.207 43V41.572H178.635V43H177.207ZM183.85 43.126C182.73 43.126 181.872 42.692 181.274 41.824C180.677 40.956 180.378 39.7007 180.378 38.058C180.378 36.406 180.677 35.1507 181.274 34.292C181.872 33.4333 182.73 33.004 183.85 33.004C184.98 33.004 185.838 33.4333 186.426 34.292C187.024 35.1507 187.322 36.4013 187.322 38.044C187.322 39.696 187.024 40.956 186.426 41.824C185.829 42.692 184.97 43.126 183.85 43.126ZM183.85 42.118C184.634 42.118 185.218 41.7867 185.6 41.124C185.983 40.4613 186.174 39.4347 186.174 38.044C186.174 36.644 185.983 35.622 185.6 34.978C185.218 34.3247 184.634 33.998 183.85 33.998C183.076 33.998 182.492 34.3247 182.1 34.978C181.718 35.6313 181.526 36.6533 181.526 38.044C181.526 39.4347 181.718 40.4613 182.1 41.124C182.492 41.7867 183.076 42.118 183.85 42.118ZM192.385 43.126C191.265 43.126 190.406 42.692 189.809 41.824C189.212 40.956 188.913 39.7007 188.913 38.058C188.913 36.406 189.212 35.1507 189.809 34.292C190.406 33.4333 191.265 33.004 192.385 33.004C193.514 33.004 194.373 33.4333 194.961 34.292C195.558 35.1507 195.857 36.4013 195.857 38.044C195.857 39.696 195.558 40.956 194.961 41.824C194.364 42.692 193.505 43.126 192.385 43.126ZM192.385 42.118C193.169 42.118 193.752 41.7867 194.135 41.124C194.518 40.4613 194.709 39.4347 194.709 38.044C194.709 36.644 194.518 35.622 194.135 34.978C193.752 34.3247 193.169 33.998 192.385 33.998C191.61 33.998 191.027 34.3247 190.635 34.978C190.252 35.6313 190.061 36.6533 190.061 38.044C190.061 39.4347 190.252 40.4613 190.635 41.124C191.027 41.7867 191.61 42.118 192.385 42.118ZM197.84 43V35.972H198.792L201.424 40.69L204.07 35.972H205.022V43H204.014V37.232H204.308L201.718 41.866H201.144L198.54 37.218H198.848V43H197.84Z" fill="black"></path><path d="M252.204 43V42.132L255.704 38.478C256.161 38.002 256.502 37.5493 256.726 37.12C256.959 36.6813 257.076 36.2287 257.076 35.762C257.076 35.1927 256.899 34.7633 256.544 34.474C256.189 34.1753 255.676 34.026 255.004 34.026C254.481 34.026 253.996 34.1193 253.548 34.306C253.109 34.4833 252.685 34.768 252.274 35.16L251.854 34.25C252.227 33.8767 252.703 33.578 253.282 33.354C253.861 33.1207 254.472 33.004 255.116 33.004C256.115 33.004 256.885 33.2373 257.426 33.704C257.967 34.1613 258.238 34.8147 258.238 35.664C258.238 36.2893 258.084 36.8867 257.776 37.456C257.477 38.016 257.039 38.5947 256.46 39.192L253.366 42.328V42.006H258.658V43H252.204ZM260.417 43V41.572H261.845V43H260.417ZM267.06 43.126C265.94 43.126 265.081 42.692 264.484 41.824C263.887 40.956 263.588 39.7007 263.588 38.058C263.588 36.406 263.887 35.1507 264.484 34.292C265.081 33.4333 265.94 33.004 267.06 33.004C268.189 33.004 269.048 33.4333 269.636 34.292C270.233 35.1507 270.532 36.4013 270.532 38.044C270.532 39.696 270.233 40.956 269.636 41.824C269.039 42.692 268.18 43.126 267.06 43.126ZM267.06 42.118C267.844 42.118 268.427 41.7867 268.81 41.124C269.193 40.4613 269.384 39.4347 269.384 38.044C269.384 36.644 269.193 35.622 268.81 34.978C268.427 34.3247 267.844 33.998 267.06 33.998C266.285 33.998 265.702 34.3247 265.31 34.978C264.927 35.6313 264.736 36.6533 264.736 38.044C264.736 39.4347 264.927 40.4613 265.31 41.124C265.702 41.7867 266.285 42.118 267.06 42.118ZM275.777 43.126C275.347 43.126 274.927 43.0793 274.517 42.986C274.106 42.8927 273.719 42.7573 273.355 42.58C273 42.4027 272.687 42.188 272.417 41.936L272.851 41.04C273.308 41.404 273.775 41.6747 274.251 41.852C274.727 42.02 275.235 42.104 275.777 42.104C276.486 42.104 277.041 41.9127 277.443 41.53C277.844 41.1473 278.045 40.6433 278.045 40.018C278.045 39.374 277.853 38.8467 277.471 38.436C277.088 38.0253 276.556 37.82 275.875 37.82C275.389 37.82 274.955 37.918 274.573 38.114C274.19 38.3007 273.859 38.5947 273.579 38.996H272.739V33.13H278.591V34.11H273.859V38.044H273.551C273.803 37.652 274.148 37.3533 274.587 37.148C275.035 36.9333 275.539 36.826 276.099 36.826C276.733 36.826 277.279 36.9567 277.737 37.218C278.203 37.4793 278.563 37.8433 278.815 38.31C279.067 38.7767 279.193 39.3227 279.193 39.948C279.193 40.5733 279.053 41.1287 278.773 41.614C278.502 42.09 278.11 42.4633 277.597 42.734C277.093 42.9953 276.486 43.126 275.777 43.126ZM281.049 43V35.972H282.001L284.633 40.69L287.279 35.972H288.231V43H287.223V37.232H287.517L284.927 41.866H284.353L281.749 37.218H282.057V43H281.049Z" fill="black"></path><path d="M85.204 67V66.132L88.704 62.478C89.1613 62.002 89.502 61.5493 89.726 61.12C89.9593 60.6813 90.076 60.2287 90.076 59.762C90.076 59.1927 89.8987 58.7633 89.544 58.474C89.1893 58.1753 88.676 58.026 88.004 58.026C87.4813 58.026 86.996 58.1193 86.548 58.306C86.1093 58.4833 85.6847 58.768 85.274 59.16L84.854 58.25C85.2273 57.8767 85.7033 57.578 86.282 57.354C86.8607 57.1207 87.472 57.004 88.116 57.004C89.1147 57.004 89.8847 57.2373 90.426 57.704C90.9673 58.1613 91.238 58.8147 91.238 59.664C91.238 60.2893 91.084 60.8867 90.776 61.456C90.4773 62.016 90.0387 62.5947 89.46 63.192L86.366 66.328V66.006H91.658V67H85.204ZM93.4165 67V65.572H94.8445V67H93.4165ZM100.06 67.126C98.9401 67.126 98.0814 66.692 97.4841 65.824C96.8867 64.956 96.5881 63.7007 96.5881 62.058C96.5881 60.406 96.8867 59.1507 97.4841 58.292C98.0814 57.4333 98.9401 57.004 100.06 57.004C101.189 57.004 102.048 57.4333 102.636 58.292C103.233 59.1507 103.532 60.4013 103.532 62.044C103.532 63.696 103.233 64.956 102.636 65.824C102.039 66.692 101.18 67.126 100.06 67.126ZM100.06 66.118C100.844 66.118 101.427 65.7867 101.81 65.124C102.193 64.4613 102.384 63.4347 102.384 62.044C102.384 60.644 102.193 59.622 101.81 58.978C101.427 58.3247 100.844 57.998 100.06 57.998C99.2854 57.998 98.7021 58.3247 98.3101 58.978C97.9274 59.6313 97.7361 60.6533 97.7361 62.044C97.7361 63.4347 97.9274 64.4613 98.3101 65.124C98.7021 65.7867 99.2854 66.118 100.06 66.118ZM108.777 67.126C108.347 67.126 107.927 67.0793 107.517 66.986C107.106 66.8927 106.719 66.7573 106.355 66.58C106 66.4027 105.687 66.188 105.417 65.936L105.851 65.04C106.308 65.404 106.775 65.6747 107.251 65.852C107.727 66.02 108.235 66.104 108.777 66.104C109.486 66.104 110.041 65.9127 110.443 65.53C110.844 65.1473 111.045 64.6433 111.045 64.018C111.045 63.374 110.853 62.8467 110.471 62.436C110.088 62.0253 109.556 61.82 108.875 61.82C108.389 61.82 107.955 61.918 107.573 62.114C107.19 62.3007 106.859 62.5947 106.579 62.996H105.739V57.13H111.591V58.11H106.859V62.044H106.551C106.803 61.652 107.148 61.3533 107.587 61.148C108.035 60.9333 108.539 60.826 109.099 60.826C109.733 60.826 110.279 60.9567 110.737 61.218C111.203 61.4793 111.563 61.8433 111.815 62.31C112.067 62.7767 112.193 63.3227 112.193 63.948C112.193 64.5733 112.053 65.1287 111.773 65.614C111.502 66.09 111.11 66.4633 110.597 66.734C110.093 66.9953 109.486 67.126 108.777 67.126ZM114.049 67V59.972H115.001L117.633 64.69L120.279 59.972H121.231V67H120.223V61.232H120.517L117.927 65.866H117.353L114.749 61.218H115.057V67H114.049Z" fill="black"></path><path d="M339.204 43V42.132L342.704 38.478C343.161 38.002 343.502 37.5493 343.726 37.12C343.959 36.6813 344.076 36.2287 344.076 35.762C344.076 35.1927 343.899 34.7633 343.544 34.474C343.189 34.1753 342.676 34.026 342.004 34.026C341.481 34.026 340.996 34.1193 340.548 34.306C340.109 34.4833 339.685 34.768 339.274 35.16L338.854 34.25C339.227 33.8767 339.703 33.578 340.282 33.354C340.861 33.1207 341.472 33.004 342.116 33.004C343.115 33.004 343.885 33.2373 344.426 33.704C344.967 34.1613 345.238 34.8147 345.238 35.664C345.238 36.2893 345.084 36.8867 344.776 37.456C344.477 38.016 344.039 38.5947 343.46 39.192L340.366 42.328V42.006H345.658V43H339.204ZM347.417 43V41.572H348.845V43H347.417ZM351.638 43V42.006H353.962V34.124H354.578L351.862 35.818V34.656L354.284 33.13H355.124V42.006H357.308V43H351.638ZM362.777 43.126C362.347 43.126 361.927 43.0793 361.517 42.986C361.106 42.8927 360.719 42.7573 360.355 42.58C360 42.4027 359.687 42.188 359.417 41.936L359.851 41.04C360.308 41.404 360.775 41.6747 361.251 41.852C361.727 42.02 362.235 42.104 362.777 42.104C363.486 42.104 364.041 41.9127 364.443 41.53C364.844 41.1473 365.045 40.6433 365.045 40.018C365.045 39.374 364.853 38.8467 364.471 38.436C364.088 38.0253 363.556 37.82 362.875 37.82C362.389 37.82 361.955 37.918 361.573 38.114C361.19 38.3007 360.859 38.5947 360.579 38.996H359.739V33.13H365.591V34.11H360.859V38.044H360.551C360.803 37.652 361.148 37.3533 361.587 37.148C362.035 36.9333 362.539 36.826 363.099 36.826C363.733 36.826 364.279 36.9567 364.737 37.218C365.203 37.4793 365.563 37.8433 365.815 38.31C366.067 38.7767 366.193 39.3227 366.193 39.948C366.193 40.5733 366.053 41.1287 365.773 41.614C365.502 42.09 365.11 42.4633 364.597 42.734C364.093 42.9953 363.486 43.126 362.777 43.126ZM368.049 43V35.972H369.001L371.633 40.69L374.279 35.972H375.231V43H374.223V37.232H374.517L371.927 41.866H371.353L368.749 37.218H369.057V43H368.049Z" fill="black"></path><path d="M165.204 67V66.132L168.704 62.478C169.161 62.002 169.502 61.5493 169.726 61.12C169.959 60.6813 170.076 60.2287 170.076 59.762C170.076 59.1927 169.899 58.7633 169.544 58.474C169.189 58.1753 168.676 58.026 168.004 58.026C167.481 58.026 166.996 58.1193 166.548 58.306C166.109 58.4833 165.685 58.768 165.274 59.16L164.854 58.25C165.227 57.8767 165.703 57.578 166.282 57.354C166.861 57.1207 167.472 57.004 168.116 57.004C169.115 57.004 169.885 57.2373 170.426 57.704C170.967 58.1613 171.238 58.8147 171.238 59.664C171.238 60.2893 171.084 60.8867 170.776 61.456C170.477 62.016 170.039 62.5947 169.46 63.192L166.366 66.328V66.006H171.658V67H165.204ZM173.417 67V65.572H174.845V67H173.417ZM177.638 67V66.006H179.962V58.124H180.578L177.862 59.818V58.656L180.284 57.13H181.124V66.006H183.308V67H177.638ZM188.777 67.126C188.347 67.126 187.927 67.0793 187.517 66.986C187.106 66.8927 186.719 66.7573 186.355 66.58C186 66.4027 185.687 66.188 185.417 65.936L185.851 65.04C186.308 65.404 186.775 65.6747 187.251 65.852C187.727 66.02 188.235 66.104 188.777 66.104C189.486 66.104 190.041 65.9127 190.443 65.53C190.844 65.1473 191.045 64.6433 191.045 64.018C191.045 63.374 190.853 62.8467 190.471 62.436C190.088 62.0253 189.556 61.82 188.875 61.82C188.389 61.82 187.955 61.918 187.573 62.114C187.19 62.3007 186.859 62.5947 186.579 62.996H185.739V57.13H191.591V58.11H186.859V62.044H186.551C186.803 61.652 187.148 61.3533 187.587 61.148C188.035 60.9333 188.539 60.826 189.099 60.826C189.733 60.826 190.279 60.9567 190.737 61.218C191.203 61.4793 191.563 61.8433 191.815 62.31C192.067 62.7767 192.193 63.3227 192.193 63.948C192.193 64.5733 192.053 65.1287 191.773 65.614C191.502 66.09 191.11 66.4633 190.597 66.734C190.093 66.9953 189.486 67.126 188.777 67.126ZM194.049 67V59.972H195.001L197.633 64.69L200.279 59.972H201.231V67H200.223V61.232H200.517L197.927 65.866H197.353L194.749 61.218H195.057V67H194.049Z" fill="black"></path><path d="M426.204 43V42.132L429.704 38.478C430.161 38.002 430.502 37.5493 430.726 37.12C430.959 36.6813 431.076 36.2287 431.076 35.762C431.076 35.1927 430.899 34.7633 430.544 34.474C430.189 34.1753 429.676 34.026 429.004 34.026C428.481 34.026 427.996 34.1193 427.548 34.306C427.109 34.4833 426.685 34.768 426.274 35.16L425.854 34.25C426.227 33.8767 426.703 33.578 427.282 33.354C427.861 33.1207 428.472 33.004 429.116 33.004C430.115 33.004 430.885 33.2373 431.426 33.704C431.967 34.1613 432.238 34.8147 432.238 35.664C432.238 36.2893 432.084 36.8867 431.776 37.456C431.477 38.016 431.039 38.5947 430.46 39.192L427.366 42.328V42.006H432.658V43H426.204ZM434.417 43V41.572H435.845V43H434.417ZM438.064 43V42.132L441.564 38.478C442.021 38.002 442.362 37.5493 442.586 37.12C442.819 36.6813 442.936 36.2287 442.936 35.762C442.936 35.1927 442.759 34.7633 442.404 34.474C442.049 34.1753 441.536 34.026 440.864 34.026C440.341 34.026 439.856 34.1193 439.408 34.306C438.969 34.4833 438.545 34.768 438.134 35.16L437.714 34.25C438.087 33.8767 438.563 33.578 439.142 33.354C439.721 33.1207 440.332 33.004 440.976 33.004C441.975 33.004 442.745 33.2373 443.286 33.704C443.827 34.1613 444.098 34.8147 444.098 35.664C444.098 36.2893 443.944 36.8867 443.636 37.456C443.337 38.016 442.899 38.5947 442.32 39.192L439.226 42.328V42.006H444.518V43H438.064ZM449.595 43.126C448.475 43.126 447.616 42.692 447.019 41.824C446.421 40.956 446.123 39.7007 446.123 38.058C446.123 36.406 446.421 35.1507 447.019 34.292C447.616 33.4333 448.475 33.004 449.595 33.004C450.724 33.004 451.583 33.4333 452.171 34.292C452.768 35.1507 453.067 36.4013 453.067 38.044C453.067 39.696 452.768 40.956 452.171 41.824C451.573 42.692 450.715 43.126 449.595 43.126ZM449.595 42.118C450.379 42.118 450.962 41.7867 451.345 41.124C451.727 40.4613 451.919 39.4347 451.919 38.044C451.919 36.644 451.727 35.622 451.345 34.978C450.962 34.3247 450.379 33.998 449.595 33.998C448.82 33.998 448.237 34.3247 447.845 34.978C447.462 35.6313 447.271 36.6533 447.271 38.044C447.271 39.4347 447.462 40.4613 447.845 41.124C448.237 41.7867 448.82 42.118 449.595 42.118ZM455.049 43V35.972H456.001L458.633 40.69L461.279 35.972H462.231V43H461.223V37.232H461.517L458.927 41.866H458.353L455.749 37.218H456.057V43H455.049Z" fill="black"></path><path d="M252.204 67V66.132L255.704 62.478C256.161 62.002 256.502 61.5493 256.726 61.12C256.959 60.6813 257.076 60.2287 257.076 59.762C257.076 59.1927 256.899 58.7633 256.544 58.474C256.189 58.1753 255.676 58.026 255.004 58.026C254.481 58.026 253.996 58.1193 253.548 58.306C253.109 58.4833 252.685 58.768 252.274 59.16L251.854 58.25C252.227 57.8767 252.703 57.578 253.282 57.354C253.861 57.1207 254.472 57.004 255.116 57.004C256.115 57.004 256.885 57.2373 257.426 57.704C257.967 58.1613 258.238 58.8147 258.238 59.664C258.238 60.2893 258.084 60.8867 257.776 61.456C257.477 62.016 257.039 62.5947 256.46 63.192L253.366 66.328V66.006H258.658V67H252.204ZM260.417 67V65.572H261.845V67H260.417ZM264.064 67V66.132L267.564 62.478C268.021 62.002 268.362 61.5493 268.586 61.12C268.819 60.6813 268.936 60.2287 268.936 59.762C268.936 59.1927 268.759 58.7633 268.404 58.474C268.049 58.1753 267.536 58.026 266.864 58.026C266.341 58.026 265.856 58.1193 265.408 58.306C264.969 58.4833 264.545 58.768 264.134 59.16L263.714 58.25C264.087 57.8767 264.563 57.578 265.142 57.354C265.721 57.1207 266.332 57.004 266.976 57.004C267.975 57.004 268.745 57.2373 269.286 57.704C269.827 58.1613 270.098 58.8147 270.098 59.664C270.098 60.2893 269.944 60.8867 269.636 61.456C269.337 62.016 268.899 62.5947 268.32 63.192L265.226 66.328V66.006H270.518V67H264.064ZM275.595 67.126C274.475 67.126 273.616 66.692 273.019 65.824C272.421 64.956 272.123 63.7007 272.123 62.058C272.123 60.406 272.421 59.1507 273.019 58.292C273.616 57.4333 274.475 57.004 275.595 57.004C276.724 57.004 277.583 57.4333 278.171 58.292C278.768 59.1507 279.067 60.4013 279.067 62.044C279.067 63.696 278.768 64.956 278.171 65.824C277.573 66.692 276.715 67.126 275.595 67.126ZM275.595 66.118C276.379 66.118 276.962 65.7867 277.345 65.124C277.727 64.4613 277.919 63.4347 277.919 62.044C277.919 60.644 277.727 59.622 277.345 58.978C276.962 58.3247 276.379 57.998 275.595 57.998C274.82 57.998 274.237 58.3247 273.845 58.978C273.462 59.6313 273.271 60.6533 273.271 62.044C273.271 63.4347 273.462 64.4613 273.845 65.124C274.237 65.7867 274.82 66.118 275.595 66.118ZM281.049 67V59.972H282.001L284.633 64.69L287.279 59.972H288.231V67H287.223V61.232H287.517L284.927 65.866H284.353L281.749 61.218H282.057V67H281.049Z" fill="black"></path><path d="M85.204 91V90.132L88.704 86.478C89.1613 86.002 89.502 85.5493 89.726 85.12C89.9593 84.6813 90.076 84.2287 90.076 83.762C90.076 83.1927 89.8987 82.7633 89.544 82.474C89.1893 82.1753 88.676 82.026 88.004 82.026C87.4813 82.026 86.996 82.1193 86.548 82.306C86.1093 82.4833 85.6847 82.768 85.274 83.16L84.854 82.25C85.2273 81.8767 85.7033 81.578 86.282 81.354C86.8607 81.1207 87.472 81.004 88.116 81.004C89.1147 81.004 89.8847 81.2373 90.426 81.704C90.9673 82.1613 91.238 82.8147 91.238 83.664C91.238 84.2893 91.084 84.8867 90.776 85.456C90.4773 86.016 90.0387 86.5947 89.46 87.192L86.366 90.328V90.006H91.658V91H85.204ZM93.4165 91V89.572H94.8445V91H93.4165ZM97.6381 91V90.006H99.9621V82.124H100.578L97.8621 83.818V82.656L100.284 81.13H101.124V90.006H103.308V91H97.6381ZM108.777 91.126C108.347 91.126 107.927 91.0793 107.517 90.986C107.106 90.8927 106.719 90.7573 106.355 90.58C106 90.4027 105.687 90.188 105.417 89.936L105.851 89.04C106.308 89.404 106.775 89.6747 107.251 89.852C107.727 90.02 108.235 90.104 108.777 90.104C109.486 90.104 110.041 89.9127 110.443 89.53C110.844 89.1473 111.045 88.6433 111.045 88.018C111.045 87.374 110.853 86.8467 110.471 86.436C110.088 86.0253 109.556 85.82 108.875 85.82C108.389 85.82 107.955 85.918 107.573 86.114C107.19 86.3007 106.859 86.5947 106.579 86.996H105.739V81.13H111.591V82.11H106.859V86.044H106.551C106.803 85.652 107.148 85.3533 107.587 85.148C108.035 84.9333 108.539 84.826 109.099 84.826C109.733 84.826 110.279 84.9567 110.737 85.218C111.203 85.4793 111.563 85.8433 111.815 86.31C112.067 86.7767 112.193 87.3227 112.193 87.948C112.193 88.5733 112.053 89.1287 111.773 89.614C111.502 90.09 111.11 90.4633 110.597 90.734C110.093 90.9953 109.486 91.126 108.777 91.126ZM114.049 91V83.972H115.001L117.633 88.69L120.279 83.972H121.231V91H120.223V85.232H120.517L117.927 89.866H117.353L114.749 85.218H115.057V91H114.049Z" fill="black"></path><path d="M513.204 43V42.132L516.704 38.478C517.161 38.002 517.502 37.5493 517.726 37.12C517.959 36.6813 518.076 36.2287 518.076 35.762C518.076 35.1927 517.899 34.7633 517.544 34.474C517.189 34.1753 516.676 34.026 516.004 34.026C515.481 34.026 514.996 34.1193 514.548 34.306C514.109 34.4833 513.685 34.768 513.274 35.16L512.854 34.25C513.227 33.8767 513.703 33.578 514.282 33.354C514.861 33.1207 515.472 33.004 516.116 33.004C517.115 33.004 517.885 33.2373 518.426 33.704C518.967 34.1613 519.238 34.8147 519.238 35.664C519.238 36.2893 519.084 36.8867 518.776 37.456C518.477 38.016 518.039 38.5947 517.46 39.192L514.366 42.328V42.006H519.658V43H513.204ZM521.417 43V41.572H522.845V43H521.417ZM525.064 43V42.132L528.564 38.478C529.021 38.002 529.362 37.5493 529.586 37.12C529.819 36.6813 529.936 36.2287 529.936 35.762C529.936 35.1927 529.759 34.7633 529.404 34.474C529.049 34.1753 528.536 34.026 527.864 34.026C527.341 34.026 526.856 34.1193 526.408 34.306C525.969 34.4833 525.545 34.768 525.134 35.16L524.714 34.25C525.087 33.8767 525.563 33.578 526.142 33.354C526.721 33.1207 527.332 33.004 527.976 33.004C528.975 33.004 529.745 33.2373 530.286 33.704C530.827 34.1613 531.098 34.8147 531.098 35.664C531.098 36.2893 530.944 36.8867 530.636 37.456C530.337 38.016 529.899 38.5947 529.32 39.192L526.226 42.328V42.006H531.518V43H525.064ZM536.777 43.126C536.347 43.126 535.927 43.0793 535.517 42.986C535.106 42.8927 534.719 42.7573 534.355 42.58C534 42.4027 533.687 42.188 533.417 41.936L533.851 41.04C534.308 41.404 534.775 41.6747 535.251 41.852C535.727 42.02 536.235 42.104 536.777 42.104C537.486 42.104 538.041 41.9127 538.443 41.53C538.844 41.1473 539.045 40.6433 539.045 40.018C539.045 39.374 538.853 38.8467 538.471 38.436C538.088 38.0253 537.556 37.82 536.875 37.82C536.389 37.82 535.955 37.918 535.573 38.114C535.19 38.3007 534.859 38.5947 534.579 38.996H533.739V33.13H539.591V34.11H534.859V38.044H534.551C534.803 37.652 535.148 37.3533 535.587 37.148C536.035 36.9333 536.539 36.826 537.099 36.826C537.733 36.826 538.279 36.9567 538.737 37.218C539.203 37.4793 539.563 37.8433 539.815 38.31C540.067 38.7767 540.193 39.3227 540.193 39.948C540.193 40.5733 540.053 41.1287 539.773 41.614C539.502 42.09 539.11 42.4633 538.597 42.734C538.093 42.9953 537.486 43.126 536.777 43.126ZM542.049 43V35.972H543.001L545.633 40.69L548.279 35.972H549.231V43H548.223V37.232H548.517L545.927 41.866H545.353L542.749 37.218H543.057V43H542.049Z" fill="black"></path><path d="M339.204 67V66.132L342.704 62.478C343.161 62.002 343.502 61.5493 343.726 61.12C343.959 60.6813 344.076 60.2287 344.076 59.762C344.076 59.1927 343.899 58.7633 343.544 58.474C343.189 58.1753 342.676 58.026 342.004 58.026C341.481 58.026 340.996 58.1193 340.548 58.306C340.109 58.4833 339.685 58.768 339.274 59.16L338.854 58.25C339.227 57.8767 339.703 57.578 340.282 57.354C340.861 57.1207 341.472 57.004 342.116 57.004C343.115 57.004 343.885 57.2373 344.426 57.704C344.967 58.1613 345.238 58.8147 345.238 59.664C345.238 60.2893 345.084 60.8867 344.776 61.456C344.477 62.016 344.039 62.5947 343.46 63.192L340.366 66.328V66.006H345.658V67H339.204ZM347.417 67V65.572H348.845V67H347.417ZM351.064 67V66.132L354.564 62.478C355.021 62.002 355.362 61.5493 355.586 61.12C355.819 60.6813 355.936 60.2287 355.936 59.762C355.936 59.1927 355.759 58.7633 355.404 58.474C355.049 58.1753 354.536 58.026 353.864 58.026C353.341 58.026 352.856 58.1193 352.408 58.306C351.969 58.4833 351.545 58.768 351.134 59.16L350.714 58.25C351.087 57.8767 351.563 57.578 352.142 57.354C352.721 57.1207 353.332 57.004 353.976 57.004C354.975 57.004 355.745 57.2373 356.286 57.704C356.827 58.1613 357.098 58.8147 357.098 59.664C357.098 60.2893 356.944 60.8867 356.636 61.456C356.337 62.016 355.899 62.5947 355.32 63.192L352.226 66.328V66.006H357.518V67H351.064ZM362.595 67.126C361.475 67.126 360.616 66.692 360.019 65.824C359.421 64.956 359.123 63.7007 359.123 62.058C359.123 60.406 359.421 59.1507 360.019 58.292C360.616 57.4333 361.475 57.004 362.595 57.004C363.724 57.004 364.583 57.4333 365.171 58.292C365.768 59.1507 366.067 60.4013 366.067 62.044C366.067 63.696 365.768 64.956 365.171 65.824C364.573 66.692 363.715 67.126 362.595 67.126ZM362.595 66.118C363.379 66.118 363.962 65.7867 364.345 65.124C364.727 64.4613 364.919 63.4347 364.919 62.044C364.919 60.644 364.727 59.622 364.345 58.978C363.962 58.3247 363.379 57.998 362.595 57.998C361.82 57.998 361.237 58.3247 360.845 58.978C360.462 59.6313 360.271 60.6533 360.271 62.044C360.271 63.4347 360.462 64.4613 360.845 65.124C361.237 65.7867 361.82 66.118 362.595 66.118ZM368.049 67V59.972H369.001L371.633 64.69L374.279 59.972H375.231V67H374.223V61.232H374.517L371.927 65.866H371.353L368.749 61.218H369.057V67H368.049Z" fill="black"></path><path d="M165.204 91V90.132L168.704 86.478C169.161 86.002 169.502 85.5493 169.726 85.12C169.959 84.6813 170.076 84.2287 170.076 83.762C170.076 83.1927 169.899 82.7633 169.544 82.474C169.189 82.1753 168.676 82.026 168.004 82.026C167.481 82.026 166.996 82.1193 166.548 82.306C166.109 82.4833 165.685 82.768 165.274 83.16L164.854 82.25C165.227 81.8767 165.703 81.578 166.282 81.354C166.861 81.1207 167.472 81.004 168.116 81.004C169.115 81.004 169.885 81.2373 170.426 81.704C170.967 82.1613 171.238 82.8147 171.238 83.664C171.238 84.2893 171.084 84.8867 170.776 85.456C170.477 86.016 170.039 86.5947 169.46 87.192L166.366 90.328V90.006H171.658V91H165.204ZM173.417 91V89.572H174.845V91H173.417ZM177.064 91V90.132L180.564 86.478C181.021 86.002 181.362 85.5493 181.586 85.12C181.819 84.6813 181.936 84.2287 181.936 83.762C181.936 83.1927 181.759 82.7633 181.404 82.474C181.049 82.1753 180.536 82.026 179.864 82.026C179.341 82.026 178.856 82.1193 178.408 82.306C177.969 82.4833 177.545 82.768 177.134 83.16L176.714 82.25C177.087 81.8767 177.563 81.578 178.142 81.354C178.721 81.1207 179.332 81.004 179.976 81.004C180.975 81.004 181.745 81.2373 182.286 81.704C182.827 82.1613 183.098 82.8147 183.098 83.664C183.098 84.2893 182.944 84.8867 182.636 85.456C182.337 86.016 181.899 86.5947 181.32 87.192L178.226 90.328V90.006H183.518V91H177.064ZM188.595 91.126C187.475 91.126 186.616 90.692 186.019 89.824C185.421 88.956 185.123 87.7007 185.123 86.058C185.123 84.406 185.421 83.1507 186.019 82.292C186.616 81.4333 187.475 81.004 188.595 81.004C189.724 81.004 190.583 81.4333 191.171 82.292C191.768 83.1507 192.067 84.4013 192.067 86.044C192.067 87.696 191.768 88.956 191.171 89.824C190.573 90.692 189.715 91.126 188.595 91.126ZM188.595 90.118C189.379 90.118 189.962 89.7867 190.345 89.124C190.727 88.4613 190.919 87.4347 190.919 86.044C190.919 84.644 190.727 83.622 190.345 82.978C189.962 82.3247 189.379 81.998 188.595 81.998C187.82 81.998 187.237 82.3247 186.845 82.978C186.462 83.6313 186.271 84.6533 186.271 86.044C186.271 87.4347 186.462 88.4613 186.845 89.124C187.237 89.7867 187.82 90.118 188.595 90.118ZM194.049 91V83.972H195.001L197.633 88.69L200.279 83.972H201.231V91H200.223V85.232H200.517L197.927 89.866H197.353L194.749 85.218H195.057V91H194.049Z" fill="black"></path><path d="M426.204 67V66.132L429.704 62.478C430.161 62.002 430.502 61.5493 430.726 61.12C430.959 60.6813 431.076 60.2287 431.076 59.762C431.076 59.1927 430.899 58.7633 430.544 58.474C430.189 58.1753 429.676 58.026 429.004 58.026C428.481 58.026 427.996 58.1193 427.548 58.306C427.109 58.4833 426.685 58.768 426.274 59.16L425.854 58.25C426.227 57.8767 426.703 57.578 427.282 57.354C427.861 57.1207 428.472 57.004 429.116 57.004C430.115 57.004 430.885 57.2373 431.426 57.704C431.967 58.1613 432.238 58.8147 432.238 59.664C432.238 60.2893 432.084 60.8867 431.776 61.456C431.477 62.016 431.039 62.5947 430.46 63.192L427.366 66.328V66.006H432.658V67H426.204ZM434.417 67V65.572H435.845V67H434.417ZM438.064 67V66.132L441.564 62.478C442.021 62.002 442.362 61.5493 442.586 61.12C442.819 60.6813 442.936 60.2287 442.936 59.762C442.936 59.1927 442.759 58.7633 442.404 58.474C442.049 58.1753 441.536 58.026 440.864 58.026C440.341 58.026 439.856 58.1193 439.408 58.306C438.969 58.4833 438.545 58.768 438.134 59.16L437.714 58.25C438.087 57.8767 438.563 57.578 439.142 57.354C439.721 57.1207 440.332 57.004 440.976 57.004C441.975 57.004 442.745 57.2373 443.286 57.704C443.827 58.1613 444.098 58.8147 444.098 59.664C444.098 60.2893 443.944 60.8867 443.636 61.456C443.337 62.016 442.899 62.5947 442.32 63.192L439.226 66.328V66.006H444.518V67H438.064ZM449.777 67.126C449.347 67.126 448.927 67.0793 448.517 66.986C448.106 66.8927 447.719 66.7573 447.355 66.58C447 66.4027 446.687 66.188 446.417 65.936L446.851 65.04C447.308 65.404 447.775 65.6747 448.251 65.852C448.727 66.02 449.235 66.104 449.777 66.104C450.486 66.104 451.041 65.9127 451.443 65.53C451.844 65.1473 452.045 64.6433 452.045 64.018C452.045 63.374 451.853 62.8467 451.471 62.436C451.088 62.0253 450.556 61.82 449.875 61.82C449.389 61.82 448.955 61.918 448.573 62.114C448.19 62.3007 447.859 62.5947 447.579 62.996H446.739V57.13H452.591V58.11H447.859V62.044H447.551C447.803 61.652 448.148 61.3533 448.587 61.148C449.035 60.9333 449.539 60.826 450.099 60.826C450.733 60.826 451.279 60.9567 451.737 61.218C452.203 61.4793 452.563 61.8433 452.815 62.31C453.067 62.7767 453.193 63.3227 453.193 63.948C453.193 64.5733 453.053 65.1287 452.773 65.614C452.502 66.09 452.11 66.4633 451.597 66.734C451.093 66.9953 450.486 67.126 449.777 67.126ZM455.049 67V59.972H456.001L458.633 64.69L461.279 59.972H462.231V67H461.223V61.232H461.517L458.927 65.866H458.353L455.749 61.218H456.057V67H455.049Z" fill="black"></path><path d="M252.204 91V90.132L255.704 86.478C256.161 86.002 256.502 85.5493 256.726 85.12C256.959 84.6813 257.076 84.2287 257.076 83.762C257.076 83.1927 256.899 82.7633 256.544 82.474C256.189 82.1753 255.676 82.026 255.004 82.026C254.481 82.026 253.996 82.1193 253.548 82.306C253.109 82.4833 252.685 82.768 252.274 83.16L251.854 82.25C252.227 81.8767 252.703 81.578 253.282 81.354C253.861 81.1207 254.472 81.004 255.116 81.004C256.115 81.004 256.885 81.2373 257.426 81.704C257.967 82.1613 258.238 82.8147 258.238 83.664C258.238 84.2893 258.084 84.8867 257.776 85.456C257.477 86.016 257.039 86.5947 256.46 87.192L253.366 90.328V90.006H258.658V91H252.204ZM260.417 91V89.572H261.845V91H260.417ZM264.064 91V90.132L267.564 86.478C268.021 86.002 268.362 85.5493 268.586 85.12C268.819 84.6813 268.936 84.2287 268.936 83.762C268.936 83.1927 268.759 82.7633 268.404 82.474C268.049 82.1753 267.536 82.026 266.864 82.026C266.341 82.026 265.856 82.1193 265.408 82.306C264.969 82.4833 264.545 82.768 264.134 83.16L263.714 82.25C264.087 81.8767 264.563 81.578 265.142 81.354C265.721 81.1207 266.332 81.004 266.976 81.004C267.975 81.004 268.745 81.2373 269.286 81.704C269.827 82.1613 270.098 82.8147 270.098 83.664C270.098 84.2893 269.944 84.8867 269.636 85.456C269.337 86.016 268.899 86.5947 268.32 87.192L265.226 90.328V90.006H270.518V91H264.064ZM275.777 91.126C275.347 91.126 274.927 91.0793 274.517 90.986C274.106 90.8927 273.719 90.7573 273.355 90.58C273 90.4027 272.687 90.188 272.417 89.936L272.851 89.04C273.308 89.404 273.775 89.6747 274.251 89.852C274.727 90.02 275.235 90.104 275.777 90.104C276.486 90.104 277.041 89.9127 277.443 89.53C277.844 89.1473 278.045 88.6433 278.045 88.018C278.045 87.374 277.853 86.8467 277.471 86.436C277.088 86.0253 276.556 85.82 275.875 85.82C275.389 85.82 274.955 85.918 274.573 86.114C274.19 86.3007 273.859 86.5947 273.579 86.996H272.739V81.13H278.591V82.11H273.859V86.044H273.551C273.803 85.652 274.148 85.3533 274.587 85.148C275.035 84.9333 275.539 84.826 276.099 84.826C276.733 84.826 277.279 84.9567 277.737 85.218C278.203 85.4793 278.563 85.8433 278.815 86.31C279.067 86.7767 279.193 87.3227 279.193 87.948C279.193 88.5733 279.053 89.1287 278.773 89.614C278.502 90.09 278.11 90.4633 277.597 90.734C277.093 90.9953 276.486 91.126 275.777 91.126ZM281.049 91V83.972H282.001L284.633 88.69L287.279 83.972H288.231V91H287.223V85.232H287.517L284.927 89.866H284.353L281.749 85.218H282.057V91H281.049Z" fill="black"></path><path d="M85.204 116V115.132L88.704 111.478C89.1613 111.002 89.502 110.549 89.726 110.12C89.9593 109.681 90.076 109.229 90.076 108.762C90.076 108.193 89.8987 107.763 89.544 107.474C89.1893 107.175 88.676 107.026 88.004 107.026C87.4813 107.026 86.996 107.119 86.548 107.306C86.1093 107.483 85.6847 107.768 85.274 108.16L84.854 107.25C85.2273 106.877 85.7033 106.578 86.282 106.354C86.8607 106.121 87.472 106.004 88.116 106.004C89.1147 106.004 89.8847 106.237 90.426 106.704C90.9673 107.161 91.238 107.815 91.238 108.664C91.238 109.289 91.084 109.887 90.776 110.456C90.4773 111.016 90.0387 111.595 89.46 112.192L86.366 115.328V115.006H91.658V116H85.204ZM93.4165 116V114.572H94.8445V116H93.4165ZM97.0641 116V115.132L100.564 111.478C101.021 111.002 101.362 110.549 101.586 110.12C101.819 109.681 101.936 109.229 101.936 108.762C101.936 108.193 101.759 107.763 101.404 107.474C101.049 107.175 100.536 107.026 99.8641 107.026C99.3414 107.026 98.8561 107.119 98.4081 107.306C97.9694 107.483 97.5447 107.768 97.1341 108.16L96.7141 107.25C97.0874 106.877 97.5634 106.578 98.1421 106.354C98.7207 106.121 99.3321 106.004 99.9761 106.004C100.975 106.004 101.745 106.237 102.286 106.704C102.827 107.161 103.098 107.815 103.098 108.664C103.098 109.289 102.944 109.887 102.636 110.456C102.337 111.016 101.899 111.595 101.32 112.192L98.2261 115.328V115.006H103.518V116H97.0641ZM108.777 116.126C108.347 116.126 107.927 116.079 107.517 115.986C107.106 115.893 106.719 115.757 106.355 115.58C106 115.403 105.687 115.188 105.417 114.936L105.851 114.04C106.308 114.404 106.775 114.675 107.251 114.852C107.727 115.02 108.235 115.104 108.777 115.104C109.486 115.104 110.041 114.913 110.443 114.53C110.844 114.147 111.045 113.643 111.045 113.018C111.045 112.374 110.853 111.847 110.471 111.436C110.088 111.025 109.556 110.82 108.875 110.82C108.389 110.82 107.955 110.918 107.573 111.114C107.19 111.301 106.859 111.595 106.579 111.996H105.739V106.13H111.591V107.11H106.859V111.044H106.551C106.803 110.652 107.148 110.353 107.587 110.148C108.035 109.933 108.539 109.826 109.099 109.826C109.733 109.826 110.279 109.957 110.737 110.218C111.203 110.479 111.563 110.843 111.815 111.31C112.067 111.777 112.193 112.323 112.193 112.948C112.193 113.573 112.053 114.129 111.773 114.614C111.502 115.09 111.11 115.463 110.597 115.734C110.093 115.995 109.486 116.126 108.777 116.126ZM114.049 116V108.972H115.001L117.633 113.69L120.279 108.972H121.231V116H120.223V110.232H120.517L117.927 114.866H117.353L114.749 110.218H115.057V116H114.049Z" fill="black"></path><path d="M513.204 67V66.132L516.704 62.478C517.161 62.002 517.502 61.5493 517.726 61.12C517.959 60.6813 518.076 60.2287 518.076 59.762C518.076 59.1927 517.899 58.7633 517.544 58.474C517.189 58.1753 516.676 58.026 516.004 58.026C515.481 58.026 514.996 58.1193 514.548 58.306C514.109 58.4833 513.685 58.768 513.274 59.16L512.854 58.25C513.227 57.8767 513.703 57.578 514.282 57.354C514.861 57.1207 515.472 57.004 516.116 57.004C517.115 57.004 517.885 57.2373 518.426 57.704C518.967 58.1613 519.238 58.8147 519.238 59.664C519.238 60.2893 519.084 60.8867 518.776 61.456C518.477 62.016 518.039 62.5947 517.46 63.192L514.366 66.328V66.006H519.658V67H513.204ZM521.417 67V65.572H522.845V67H521.417ZM528.004 67.126C527.341 67.126 526.707 67.0233 526.1 66.818C525.493 66.6127 524.985 66.3187 524.574 65.936L525.008 65.04C525.465 65.4133 525.937 65.684 526.422 65.852C526.907 66.02 527.43 66.104 527.99 66.104C528.727 66.104 529.287 65.95 529.67 65.642C530.053 65.3247 530.244 64.8627 530.244 64.256C530.244 63.6773 530.048 63.2387 529.656 62.94C529.264 62.632 528.69 62.478 527.934 62.478H526.45V61.512H527.836C528.489 61.512 529.007 61.344 529.39 61.008C529.773 60.672 529.964 60.2147 529.964 59.636C529.964 59.1133 529.787 58.7167 529.432 58.446C529.087 58.166 528.587 58.026 527.934 58.026C526.87 58.026 525.951 58.404 525.176 59.16L524.742 58.25C525.125 57.858 525.605 57.5547 526.184 57.34C526.763 57.116 527.369 57.004 528.004 57.004C528.975 57.004 529.735 57.228 530.286 57.676C530.837 58.124 531.112 58.7447 531.112 59.538C531.112 60.1447 530.939 60.6673 530.594 61.106C530.249 61.5353 529.782 61.8293 529.194 61.988V61.834C529.894 61.946 530.435 62.226 530.818 62.674C531.201 63.1127 531.392 63.668 531.392 64.34C531.392 65.1987 531.089 65.88 530.482 66.384C529.885 66.8787 529.059 67.126 528.004 67.126ZM536.595 67.126C535.475 67.126 534.616 66.692 534.019 65.824C533.421 64.956 533.123 63.7007 533.123 62.058C533.123 60.406 533.421 59.1507 534.019 58.292C534.616 57.4333 535.475 57.004 536.595 57.004C537.724 57.004 538.583 57.4333 539.171 58.292C539.768 59.1507 540.067 60.4013 540.067 62.044C540.067 63.696 539.768 64.956 539.171 65.824C538.573 66.692 537.715 67.126 536.595 67.126ZM536.595 66.118C537.379 66.118 537.962 65.7867 538.345 65.124C538.727 64.4613 538.919 63.4347 538.919 62.044C538.919 60.644 538.727 59.622 538.345 58.978C537.962 58.3247 537.379 57.998 536.595 57.998C535.82 57.998 535.237 58.3247 534.845 58.978C534.462 59.6313 534.271 60.6533 534.271 62.044C534.271 63.4347 534.462 64.4613 534.845 65.124C535.237 65.7867 535.82 66.118 536.595 66.118ZM542.049 67V59.972H543.001L545.633 64.69L548.279 59.972H549.231V67H548.223V61.232H548.517L545.927 65.866H545.353L542.749 61.218H543.057V67H542.049Z" fill="black"></path><path d="M339.204 91V90.132L342.704 86.478C343.161 86.002 343.502 85.5493 343.726 85.12C343.959 84.6813 344.076 84.2287 344.076 83.762C344.076 83.1927 343.899 82.7633 343.544 82.474C343.189 82.1753 342.676 82.026 342.004 82.026C341.481 82.026 340.996 82.1193 340.548 82.306C340.109 82.4833 339.685 82.768 339.274 83.16L338.854 82.25C339.227 81.8767 339.703 81.578 340.282 81.354C340.861 81.1207 341.472 81.004 342.116 81.004C343.115 81.004 343.885 81.2373 344.426 81.704C344.967 82.1613 345.238 82.8147 345.238 83.664C345.238 84.2893 345.084 84.8867 344.776 85.456C344.477 86.016 344.039 86.5947 343.46 87.192L340.366 90.328V90.006H345.658V91H339.204ZM347.417 91V89.572H348.845V91H347.417ZM351.064 91V90.132L354.564 86.478C355.021 86.002 355.362 85.5493 355.586 85.12C355.819 84.6813 355.936 84.2287 355.936 83.762C355.936 83.1927 355.759 82.7633 355.404 82.474C355.049 82.1753 354.536 82.026 353.864 82.026C353.341 82.026 352.856 82.1193 352.408 82.306C351.969 82.4833 351.545 82.768 351.134 83.16L350.714 82.25C351.087 81.8767 351.563 81.578 352.142 81.354C352.721 81.1207 353.332 81.004 353.976 81.004C354.975 81.004 355.745 81.2373 356.286 81.704C356.827 82.1613 357.098 82.8147 357.098 83.664C357.098 84.2893 356.944 84.8867 356.636 85.456C356.337 86.016 355.899 86.5947 355.32 87.192L352.226 90.328V90.006H357.518V91H351.064ZM362.777 91.126C362.347 91.126 361.927 91.0793 361.517 90.986C361.106 90.8927 360.719 90.7573 360.355 90.58C360 90.4027 359.687 90.188 359.417 89.936L359.851 89.04C360.308 89.404 360.775 89.6747 361.251 89.852C361.727 90.02 362.235 90.104 362.777 90.104C363.486 90.104 364.041 89.9127 364.443 89.53C364.844 89.1473 365.045 88.6433 365.045 88.018C365.045 87.374 364.853 86.8467 364.471 86.436C364.088 86.0253 363.556 85.82 362.875 85.82C362.389 85.82 361.955 85.918 361.573 86.114C361.19 86.3007 360.859 86.5947 360.579 86.996H359.739V81.13H365.591V82.11H360.859V86.044H360.551C360.803 85.652 361.148 85.3533 361.587 85.148C362.035 84.9333 362.539 84.826 363.099 84.826C363.733 84.826 364.279 84.9567 364.737 85.218C365.203 85.4793 365.563 85.8433 365.815 86.31C366.067 86.7767 366.193 87.3227 366.193 87.948C366.193 88.5733 366.053 89.1287 365.773 89.614C365.502 90.09 365.11 90.4633 364.597 90.734C364.093 90.9953 363.486 91.126 362.777 91.126ZM368.049 91V83.972H369.001L371.633 88.69L374.279 83.972H375.231V91H374.223V85.232H374.517L371.927 89.866H371.353L368.749 85.218H369.057V91H368.049Z" fill="black"></path><path d="M165.204 116V115.132L168.704 111.478C169.161 111.002 169.502 110.549 169.726 110.12C169.959 109.681 170.076 109.229 170.076 108.762C170.076 108.193 169.899 107.763 169.544 107.474C169.189 107.175 168.676 107.026 168.004 107.026C167.481 107.026 166.996 107.119 166.548 107.306C166.109 107.483 165.685 107.768 165.274 108.16L164.854 107.25C165.227 106.877 165.703 106.578 166.282 106.354C166.861 106.121 167.472 106.004 168.116 106.004C169.115 106.004 169.885 106.237 170.426 106.704C170.967 107.161 171.238 107.815 171.238 108.664C171.238 109.289 171.084 109.887 170.776 110.456C170.477 111.016 170.039 111.595 169.46 112.192L166.366 115.328V115.006H171.658V116H165.204ZM173.417 116V114.572H174.845V116H173.417ZM177.064 116V115.132L180.564 111.478C181.021 111.002 181.362 110.549 181.586 110.12C181.819 109.681 181.936 109.229 181.936 108.762C181.936 108.193 181.759 107.763 181.404 107.474C181.049 107.175 180.536 107.026 179.864 107.026C179.341 107.026 178.856 107.119 178.408 107.306C177.969 107.483 177.545 107.768 177.134 108.16L176.714 107.25C177.087 106.877 177.563 106.578 178.142 106.354C178.721 106.121 179.332 106.004 179.976 106.004C180.975 106.004 181.745 106.237 182.286 106.704C182.827 107.161 183.098 107.815 183.098 108.664C183.098 109.289 182.944 109.887 182.636 110.456C182.337 111.016 181.899 111.595 181.32 112.192L178.226 115.328V115.006H183.518V116H177.064ZM188.777 116.126C188.347 116.126 187.927 116.079 187.517 115.986C187.106 115.893 186.719 115.757 186.355 115.58C186 115.403 185.687 115.188 185.417 114.936L185.851 114.04C186.308 114.404 186.775 114.675 187.251 114.852C187.727 115.02 188.235 115.104 188.777 115.104C189.486 115.104 190.041 114.913 190.443 114.53C190.844 114.147 191.045 113.643 191.045 113.018C191.045 112.374 190.853 111.847 190.471 111.436C190.088 111.025 189.556 110.82 188.875 110.82C188.389 110.82 187.955 110.918 187.573 111.114C187.19 111.301 186.859 111.595 186.579 111.996H185.739V106.13H191.591V107.11H186.859V111.044H186.551C186.803 110.652 187.148 110.353 187.587 110.148C188.035 109.933 188.539 109.826 189.099 109.826C189.733 109.826 190.279 109.957 190.737 110.218C191.203 110.479 191.563 110.843 191.815 111.31C192.067 111.777 192.193 112.323 192.193 112.948C192.193 113.573 192.053 114.129 191.773 114.614C191.502 115.09 191.11 115.463 190.597 115.734C190.093 115.995 189.486 116.126 188.777 116.126ZM194.049 116V108.972H195.001L197.633 113.69L200.279 108.972H201.231V116H200.223V110.232H200.517L197.927 114.866H197.353L194.749 110.218H195.057V116H194.049Z" fill="black"></path><path d="M429.994 91V90.132L433.494 86.478C433.952 86.002 434.292 85.5493 434.516 85.12C434.75 84.6813 434.866 84.2287 434.866 83.762C434.866 83.1927 434.689 82.7633 434.334 82.474C433.98 82.1753 433.466 82.026 432.794 82.026C432.272 82.026 431.786 82.1193 431.338 82.306C430.9 82.4833 430.475 82.768 430.064 83.16L429.644 82.25C430.018 81.8767 430.494 81.578 431.072 81.354C431.651 81.1207 432.262 81.004 432.906 81.004C433.905 81.004 434.675 81.2373 435.216 81.704C435.758 82.1613 436.028 82.8147 436.028 83.664C436.028 84.2893 435.874 84.8867 435.566 85.456C435.268 86.016 434.829 86.5947 434.25 87.192L431.156 90.328V90.006H436.448V91H429.994ZM438.207 91V89.572H439.635V91H438.207ZM444.794 91.126C444.132 91.126 443.497 91.0233 442.89 90.818C442.284 90.6127 441.775 90.3187 441.364 89.936L441.798 89.04C442.256 89.4133 442.727 89.684 443.212 89.852C443.698 90.02 444.22 90.104 444.78 90.104C445.518 90.104 446.078 89.95 446.46 89.642C446.843 89.3247 447.034 88.8627 447.034 88.256C447.034 87.6773 446.838 87.2387 446.446 86.94C446.054 86.632 445.48 86.478 444.724 86.478H443.24V85.512H444.626C445.28 85.512 445.798 85.344 446.18 85.008C446.563 84.672 446.754 84.2147 446.754 83.636C446.754 83.1133 446.577 82.7167 446.222 82.446C445.877 82.166 445.378 82.026 444.724 82.026C443.66 82.026 442.741 82.404 441.966 83.16L441.532 82.25C441.915 81.858 442.396 81.5547 442.974 81.34C443.553 81.116 444.16 81.004 444.794 81.004C445.765 81.004 446.526 81.228 447.076 81.676C447.627 82.124 447.902 82.7447 447.902 83.538C447.902 84.1447 447.73 84.6673 447.384 85.106C447.039 85.5353 446.572 85.8293 445.984 85.988V85.834C446.684 85.946 447.226 86.226 447.608 86.674C447.991 87.1127 448.182 87.668 448.182 88.34C448.182 89.1987 447.879 89.88 447.272 90.384C446.675 90.8787 445.849 91.126 444.794 91.126ZM453.385 91.126C452.265 91.126 451.406 90.692 450.809 89.824C450.212 88.956 449.913 87.7007 449.913 86.058C449.913 84.406 450.212 83.1507 450.809 82.292C451.406 81.4333 452.265 81.004 453.385 81.004C454.514 81.004 455.373 81.4333 455.961 82.292C456.558 83.1507 456.857 84.4013 456.857 86.044C456.857 87.696 456.558 88.956 455.961 89.824C455.364 90.692 454.505 91.126 453.385 91.126ZM453.385 90.118C454.169 90.118 454.752 89.7867 455.135 89.124C455.518 88.4613 455.709 87.4347 455.709 86.044C455.709 84.644 455.518 83.622 455.135 82.978C454.752 82.3247 454.169 81.998 453.385 81.998C452.61 81.998 452.027 82.3247 451.635 82.978C451.252 83.6313 451.061 84.6533 451.061 86.044C451.061 87.4347 451.252 88.4613 451.635 89.124C452.027 89.7867 452.61 90.118 453.385 90.118ZM458.84 91V83.972H459.792L462.424 88.69L465.07 83.972H466.022V91H465.014V85.232H465.308L462.718 89.866H462.144L459.54 85.218H459.848V91H458.84Z" fill="black"></path><path d="M252.204 116V115.132L255.704 111.478C256.161 111.002 256.502 110.549 256.726 110.12C256.959 109.681 257.076 109.229 257.076 108.762C257.076 108.193 256.899 107.763 256.544 107.474C256.189 107.175 255.676 107.026 255.004 107.026C254.481 107.026 253.996 107.119 253.548 107.306C253.109 107.483 252.685 107.768 252.274 108.16L251.854 107.25C252.227 106.877 252.703 106.578 253.282 106.354C253.861 106.121 254.472 106.004 255.116 106.004C256.115 106.004 256.885 106.237 257.426 106.704C257.967 107.161 258.238 107.815 258.238 108.664C258.238 109.289 258.084 109.887 257.776 110.456C257.477 111.016 257.039 111.595 256.46 112.192L253.366 115.328V115.006H258.658V116H252.204ZM260.417 116V114.572H261.845V116H260.417ZM267.004 116.126C266.341 116.126 265.707 116.023 265.1 115.818C264.493 115.613 263.985 115.319 263.574 114.936L264.008 114.04C264.465 114.413 264.937 114.684 265.422 114.852C265.907 115.02 266.43 115.104 266.99 115.104C267.727 115.104 268.287 114.95 268.67 114.642C269.053 114.325 269.244 113.863 269.244 113.256C269.244 112.677 269.048 112.239 268.656 111.94C268.264 111.632 267.69 111.478 266.934 111.478H265.45V110.512H266.836C267.489 110.512 268.007 110.344 268.39 110.008C268.773 109.672 268.964 109.215 268.964 108.636C268.964 108.113 268.787 107.717 268.432 107.446C268.087 107.166 267.587 107.026 266.934 107.026C265.87 107.026 264.951 107.404 264.176 108.16L263.742 107.25C264.125 106.858 264.605 106.555 265.184 106.34C265.763 106.116 266.369 106.004 267.004 106.004C267.975 106.004 268.735 106.228 269.286 106.676C269.837 107.124 270.112 107.745 270.112 108.538C270.112 109.145 269.939 109.667 269.594 110.106C269.249 110.535 268.782 110.829 268.194 110.988V110.834C268.894 110.946 269.435 111.226 269.818 111.674C270.201 112.113 270.392 112.668 270.392 113.34C270.392 114.199 270.089 114.88 269.482 115.384C268.885 115.879 268.059 116.126 267.004 116.126ZM275.595 116.126C274.475 116.126 273.616 115.692 273.019 114.824C272.421 113.956 272.123 112.701 272.123 111.058C272.123 109.406 272.421 108.151 273.019 107.292C273.616 106.433 274.475 106.004 275.595 106.004C276.724 106.004 277.583 106.433 278.171 107.292C278.768 108.151 279.067 109.401 279.067 111.044C279.067 112.696 278.768 113.956 278.171 114.824C277.573 115.692 276.715 116.126 275.595 116.126ZM275.595 115.118C276.379 115.118 276.962 114.787 277.345 114.124C277.727 113.461 277.919 112.435 277.919 111.044C277.919 109.644 277.727 108.622 277.345 107.978C276.962 107.325 276.379 106.998 275.595 106.998C274.82 106.998 274.237 107.325 273.845 107.978C273.462 108.631 273.271 109.653 273.271 111.044C273.271 112.435 273.462 113.461 273.845 114.124C274.237 114.787 274.82 115.118 275.595 115.118ZM281.049 116V108.972H282.001L284.633 113.69L287.279 108.972H288.231V116H287.223V110.232H287.517L284.927 114.866H284.353L281.749 110.218H282.057V116H281.049Z" fill="black"></path><path d="M513.204 91V90.132L516.704 86.478C517.161 86.002 517.502 85.5493 517.726 85.12C517.959 84.6813 518.076 84.2287 518.076 83.762C518.076 83.1927 517.899 82.7633 517.544 82.474C517.189 82.1753 516.676 82.026 516.004 82.026C515.481 82.026 514.996 82.1193 514.548 82.306C514.109 82.4833 513.685 82.768 513.274 83.16L512.854 82.25C513.227 81.8767 513.703 81.578 514.282 81.354C514.861 81.1207 515.472 81.004 516.116 81.004C517.115 81.004 517.885 81.2373 518.426 81.704C518.967 82.1613 519.238 82.8147 519.238 83.664C519.238 84.2893 519.084 84.8867 518.776 85.456C518.477 86.016 518.039 86.5947 517.46 87.192L514.366 90.328V90.006H519.658V91H513.204ZM521.417 91V89.572H522.845V91H521.417ZM528.004 91.126C527.341 91.126 526.707 91.0233 526.1 90.818C525.493 90.6127 524.985 90.3187 524.574 89.936L525.008 89.04C525.465 89.4133 525.937 89.684 526.422 89.852C526.907 90.02 527.43 90.104 527.99 90.104C528.727 90.104 529.287 89.95 529.67 89.642C530.053 89.3247 530.244 88.8627 530.244 88.256C530.244 87.6773 530.048 87.2387 529.656 86.94C529.264 86.632 528.69 86.478 527.934 86.478H526.45V85.512H527.836C528.489 85.512 529.007 85.344 529.39 85.008C529.773 84.672 529.964 84.2147 529.964 83.636C529.964 83.1133 529.787 82.7167 529.432 82.446C529.087 82.166 528.587 82.026 527.934 82.026C526.87 82.026 525.951 82.404 525.176 83.16L524.742 82.25C525.125 81.858 525.605 81.5547 526.184 81.34C526.763 81.116 527.369 81.004 528.004 81.004C528.975 81.004 529.735 81.228 530.286 81.676C530.837 82.124 531.112 82.7447 531.112 83.538C531.112 84.1447 530.939 84.6673 530.594 85.106C530.249 85.5353 529.782 85.8293 529.194 85.988V85.834C529.894 85.946 530.435 86.226 530.818 86.674C531.201 87.1127 531.392 87.668 531.392 88.34C531.392 89.1987 531.089 89.88 530.482 90.384C529.885 90.8787 529.059 91.126 528.004 91.126ZM536.777 91.126C536.347 91.126 535.927 91.0793 535.517 90.986C535.106 90.8927 534.719 90.7573 534.355 90.58C534 90.4027 533.687 90.188 533.417 89.936L533.851 89.04C534.308 89.404 534.775 89.6747 535.251 89.852C535.727 90.02 536.235 90.104 536.777 90.104C537.486 90.104 538.041 89.9127 538.443 89.53C538.844 89.1473 539.045 88.6433 539.045 88.018C539.045 87.374 538.853 86.8467 538.471 86.436C538.088 86.0253 537.556 85.82 536.875 85.82C536.389 85.82 535.955 85.918 535.573 86.114C535.19 86.3007 534.859 86.5947 534.579 86.996H533.739V81.13H539.591V82.11H534.859V86.044H534.551C534.803 85.652 535.148 85.3533 535.587 85.148C536.035 84.9333 536.539 84.826 537.099 84.826C537.733 84.826 538.279 84.9567 538.737 85.218C539.203 85.4793 539.563 85.8433 539.815 86.31C540.067 86.7767 540.193 87.3227 540.193 87.948C540.193 88.5733 540.053 89.1287 539.773 89.614C539.502 90.09 539.11 90.4633 538.597 90.734C538.093 90.9953 537.486 91.126 536.777 91.126ZM542.049 91V83.972H543.001L545.633 88.69L548.279 83.972H549.231V91H548.223V85.232H548.517L545.927 89.866H545.353L542.749 85.218H543.057V91H542.049Z" fill="black"></path><path d="M339.204 116V115.132L342.704 111.478C343.161 111.002 343.502 110.549 343.726 110.12C343.959 109.681 344.076 109.229 344.076 108.762C344.076 108.193 343.899 107.763 343.544 107.474C343.189 107.175 342.676 107.026 342.004 107.026C341.481 107.026 340.996 107.119 340.548 107.306C340.109 107.483 339.685 107.768 339.274 108.16L338.854 107.25C339.227 106.877 339.703 106.578 340.282 106.354C340.861 106.121 341.472 106.004 342.116 106.004C343.115 106.004 343.885 106.237 344.426 106.704C344.967 107.161 345.238 107.815 345.238 108.664C345.238 109.289 345.084 109.887 344.776 110.456C344.477 111.016 344.039 111.595 343.46 112.192L340.366 115.328V115.006H345.658V116H339.204ZM347.417 116V114.572H348.845V116H347.417ZM354.004 116.126C353.341 116.126 352.707 116.023 352.1 115.818C351.493 115.613 350.985 115.319 350.574 114.936L351.008 114.04C351.465 114.413 351.937 114.684 352.422 114.852C352.907 115.02 353.43 115.104 353.99 115.104C354.727 115.104 355.287 114.95 355.67 114.642C356.053 114.325 356.244 113.863 356.244 113.256C356.244 112.677 356.048 112.239 355.656 111.94C355.264 111.632 354.69 111.478 353.934 111.478H352.45V110.512H353.836C354.489 110.512 355.007 110.344 355.39 110.008C355.773 109.672 355.964 109.215 355.964 108.636C355.964 108.113 355.787 107.717 355.432 107.446C355.087 107.166 354.587 107.026 353.934 107.026C352.87 107.026 351.951 107.404 351.176 108.16L350.742 107.25C351.125 106.858 351.605 106.555 352.184 106.34C352.763 106.116 353.369 106.004 354.004 106.004C354.975 106.004 355.735 106.228 356.286 106.676C356.837 107.124 357.112 107.745 357.112 108.538C357.112 109.145 356.939 109.667 356.594 110.106C356.249 110.535 355.782 110.829 355.194 110.988V110.834C355.894 110.946 356.435 111.226 356.818 111.674C357.201 112.113 357.392 112.668 357.392 113.34C357.392 114.199 357.089 114.88 356.482 115.384C355.885 115.879 355.059 116.126 354.004 116.126ZM362.777 116.126C362.347 116.126 361.927 116.079 361.517 115.986C361.106 115.893 360.719 115.757 360.355 115.58C360 115.403 359.687 115.188 359.417 114.936L359.851 114.04C360.308 114.404 360.775 114.675 361.251 114.852C361.727 115.02 362.235 115.104 362.777 115.104C363.486 115.104 364.041 114.913 364.443 114.53C364.844 114.147 365.045 113.643 365.045 113.018C365.045 112.374 364.853 111.847 364.471 111.436C364.088 111.025 363.556 110.82 362.875 110.82C362.389 110.82 361.955 110.918 361.573 111.114C361.19 111.301 360.859 111.595 360.579 111.996H359.739V106.13H365.591V107.11H360.859V111.044H360.551C360.803 110.652 361.148 110.353 361.587 110.148C362.035 109.933 362.539 109.826 363.099 109.826C363.733 109.826 364.279 109.957 364.737 110.218C365.203 110.479 365.563 110.843 365.815 111.31C366.067 111.777 366.193 112.323 366.193 112.948C366.193 113.573 366.053 114.129 365.773 114.614C365.502 115.09 365.11 115.463 364.597 115.734C364.093 115.995 363.486 116.126 362.777 116.126ZM368.049 116V108.972H369.001L371.633 113.69L374.279 108.972H375.231V116H374.223V110.232H374.517L371.927 114.866H371.353L368.749 110.218H369.057V116H368.049Z" fill="black"></path><path d="M426.204 116V115.132L429.704 111.478C430.161 111.002 430.502 110.549 430.726 110.12C430.959 109.681 431.076 109.229 431.076 108.762C431.076 108.193 430.899 107.763 430.544 107.474C430.189 107.175 429.676 107.026 429.004 107.026C428.481 107.026 427.996 107.119 427.548 107.306C427.109 107.483 426.685 107.768 426.274 108.16L425.854 107.25C426.227 106.877 426.703 106.578 427.282 106.354C427.861 106.121 428.472 106.004 429.116 106.004C430.115 106.004 430.885 106.237 431.426 106.704C431.967 107.161 432.238 107.815 432.238 108.664C432.238 109.289 432.084 109.887 431.776 110.456C431.477 111.016 431.039 111.595 430.46 112.192L427.366 115.328V115.006H432.658V116H426.204ZM434.417 116V114.572H435.845V116H434.417ZM442.264 116V113.858H437.56V113.018L442.446 106.13H443.398V112.92H444.91V113.858H443.398V116H442.264ZM442.264 112.92V107.502H442.572L438.512 113.214V112.92H442.264ZM449.595 116.126C448.475 116.126 447.616 115.692 447.019 114.824C446.421 113.956 446.123 112.701 446.123 111.058C446.123 109.406 446.421 108.151 447.019 107.292C447.616 106.433 448.475 106.004 449.595 106.004C450.724 106.004 451.583 106.433 452.171 107.292C452.768 108.151 453.067 109.401 453.067 111.044C453.067 112.696 452.768 113.956 452.171 114.824C451.573 115.692 450.715 116.126 449.595 116.126ZM449.595 115.118C450.379 115.118 450.962 114.787 451.345 114.124C451.727 113.461 451.919 112.435 451.919 111.044C451.919 109.644 451.727 108.622 451.345 107.978C450.962 107.325 450.379 106.998 449.595 106.998C448.82 106.998 448.237 107.325 447.845 107.978C447.462 108.631 447.271 109.653 447.271 111.044C447.271 112.435 447.462 113.461 447.845 114.124C448.237 114.787 448.82 115.118 449.595 115.118ZM455.049 116V108.972H456.001L458.633 113.69L461.279 108.972H462.231V116H461.223V110.232H461.517L458.927 114.866H458.353L455.749 110.218H456.057V116H455.049Z" fill="black"></path><path d="M513.204 116V115.132L516.704 111.478C517.161 111.002 517.502 110.549 517.726 110.12C517.959 109.681 518.076 109.229 518.076 108.762C518.076 108.193 517.899 107.763 517.544 107.474C517.189 107.175 516.676 107.026 516.004 107.026C515.481 107.026 514.996 107.119 514.548 107.306C514.109 107.483 513.685 107.768 513.274 108.16L512.854 107.25C513.227 106.877 513.703 106.578 514.282 106.354C514.861 106.121 515.472 106.004 516.116 106.004C517.115 106.004 517.885 106.237 518.426 106.704C518.967 107.161 519.238 107.815 519.238 108.664C519.238 109.289 519.084 109.887 518.776 110.456C518.477 111.016 518.039 111.595 517.46 112.192L514.366 115.328V115.006H519.658V116H513.204ZM521.417 116V114.572H522.845V116H521.417ZM529.264 116V113.858H524.56V113.018L529.446 106.13H530.398V112.92H531.91V113.858H530.398V116H529.264ZM529.264 112.92V107.502H529.572L525.512 113.214V112.92H529.264ZM536.595 116.126C535.475 116.126 534.616 115.692 534.019 114.824C533.421 113.956 533.123 112.701 533.123 111.058C533.123 109.406 533.421 108.151 534.019 107.292C534.616 106.433 535.475 106.004 536.595 106.004C537.724 106.004 538.583 106.433 539.171 107.292C539.768 108.151 540.067 109.401 540.067 111.044C540.067 112.696 539.768 113.956 539.171 114.824C538.573 115.692 537.715 116.126 536.595 116.126ZM536.595 115.118C537.379 115.118 537.962 114.787 538.345 114.124C538.727 113.461 538.919 112.435 538.919 111.044C538.919 109.644 538.727 108.622 538.345 107.978C537.962 107.325 537.379 106.998 536.595 106.998C535.82 106.998 535.237 107.325 534.845 107.978C534.462 108.631 534.271 109.653 534.271 111.044C534.271 112.435 534.462 113.461 534.845 114.124C535.237 114.787 535.82 115.118 536.595 115.118ZM542.049 116V108.972H543.001L545.633 113.69L548.279 108.972H549.231V116H548.223V110.232H548.517L545.927 114.866H545.353L542.749 110.218H543.057V116H542.049Z" fill="black"></path></g><defs><clipPath id="clip0_511_9671"><rect width="567" height="123" fill="white"></rect></clipPath></defs></svg> 